<svg xmlns="http://www.w3.org/2000/svg" width="980" height="158" viewBox="0 0 980 158" role="img">
<text x="260" y="20" font-size="15" font-weight="600" fill="#e6edf3" font-family="system-ui,-apple-system,Segoe UI,sans-serif">Peak process memory — one 1920×1080 / 128×128 match</text>
<text x="260" y="38" font-size="12" fill="#8b949e" font-family="system-ui,-apple-system,Segoe UI,sans-serif">whole-process peak RSS (VmHWM), fresh process per run</text>
<text x="976" y="38" font-size="11" text-anchor="end" fill="#8b949e" font-family="system-ui,-apple-system,Segoe UI,sans-serif">MB — lower is better</text>
<line x1="260.0" y1="56" x2="260.0" y2="128" stroke="#30363d" stroke-width="1"/>
<text x="260.0" y="144" font-size="11" text-anchor="middle" fill="#8b949e" font-family="system-ui,-apple-system,Segoe UI,sans-serif" style="font-variant-numeric:tabular-nums">0</text>
<line x1="408.0" y1="56" x2="408.0" y2="128" stroke="#30363d" stroke-width="1"/>
<text x="408.0" y="144" font-size="11" text-anchor="middle" fill="#8b949e" font-family="system-ui,-apple-system,Segoe UI,sans-serif" style="font-variant-numeric:tabular-nums">50</text>
<line x1="556.0" y1="56" x2="556.0" y2="128" stroke="#30363d" stroke-width="1"/>
<text x="556.0" y="144" font-size="11" text-anchor="middle" fill="#8b949e" font-family="system-ui,-apple-system,Segoe UI,sans-serif" style="font-variant-numeric:tabular-nums">100</text>
<line x1="704.0" y1="56" x2="704.0" y2="128" stroke="#30363d" stroke-width="1"/>
<text x="704.0" y="144" font-size="11" text-anchor="middle" fill="#8b949e" font-family="system-ui,-apple-system,Segoe UI,sans-serif" style="font-variant-numeric:tabular-nums">150</text>
<line x1="852.0" y1="56" x2="852.0" y2="128" stroke="#30363d" stroke-width="1"/>
<text x="852.0" y="144" font-size="11" text-anchor="middle" fill="#8b949e" font-family="system-ui,-apple-system,Segoe UI,sans-serif" style="font-variant-numeric:tabular-nums">200</text>
<line x1="260" y1="56" x2="260" y2="128" stroke="#484f58" stroke-width="1"/>
<text x="250" y="71" font-size="12" text-anchor="end" fill="#9198a1" font-family="system-ui,-apple-system,Segoe UI,sans-serif">OpenCV C++ (native)</text>
<path d="M260.5,60 h454.2 a4,4 0 0 1 4,4 v6 a4,4 0 0 1 -4,4 h-454.2 z" fill="#008300"/>
<text x="725.2" y="71" font-size="11" fill="#9198a1" font-family="system-ui,-apple-system,Segoe UI,sans-serif" style="font-variant-numeric:tabular-nums">154.8 MB</text>
<text x="250" y="87" font-size="12" text-anchor="end" fill="#9198a1" font-family="system-ui,-apple-system,Segoe UI,sans-serif">cvmatch.Match</text>
<path d="M260.5,76 h97.8 a4,4 0 0 1 4,4 v6 a4,4 0 0 1 -4,4 h-97.8 z" fill="#3987e5"/>
<text x="368.8" y="87" font-size="11" fill="#9198a1" font-family="system-ui,-apple-system,Segoe UI,sans-serif" style="font-variant-numeric:tabular-nums">34.4 MB · 4.5× less</text>
<text x="250" y="103" font-size="12" text-anchor="end" fill="#9198a1" font-family="system-ui,-apple-system,Segoe UI,sans-serif">cvmatch.MatchGray</text>
<path d="M260.5,92 h68.5 a4,4 0 0 1 4,4 v6 a4,4 0 0 1 -4,4 h-68.5 z" fill="#c98500"/>
<text x="339.5" y="103" font-size="11" fill="#9198a1" font-family="system-ui,-apple-system,Segoe UI,sans-serif" style="font-variant-numeric:tabular-nums">24.5 MB · 6.3× less</text>
<text x="250" y="119" font-size="12" text-anchor="end" fill="#9198a1" font-family="system-ui,-apple-system,Segoe UI,sans-serif">idle Go process (baseline)</text>
<path d="M260.5,108 h31.8 a4,4 0 0 1 4,4 v6 a4,4 0 0 1 -4,4 h-31.8 z" fill="#6e7681"/>
<text x="302.8" y="119" font-size="11" fill="#9198a1" font-family="system-ui,-apple-system,Segoe UI,sans-serif" style="font-variant-numeric:tabular-nums">12.1 MB</text>
</svg>
